<?xml version="1.0" encoding="UTF-8" standalone="no"?> <svg xmlns="http://www.w3.org/2000/svg" fill="#23b5b5" viewBox="0 0 64 64"><g id="Layer_10" data-name="Layer 10"><path d="M19.56,46.06a.89.89,0,0,0,.62-.23.87.87,0,0,0,.26-.66.83.83,0,0,0-.26-.61.89.89,0,0,0-.63-.26.86.86,0,0,0-.63.26.88.88,0,0,0-.25.61.82.82,0,0,0,.27.66A.87.87,0,0,0,19.56,46.06Z"/><path d="M22.51,43.91a4,4,0,0,0,.58.91,3.31,3.31,0,0,0,.84.71,3.35,3.35,0,0,0,1,.41,5.83,5.83,0,0,0,1.23.12,4,4,0,0,0,1.57-.28A3.2,3.2,0,0,0,28.85,45a3.34,3.34,0,0,0,.64-.94,2.36,2.36,0,0,0,.2-.88.75.75,0,0,0-.76-.76.6.6,0,0,0-.52.21,1.83,1.83,0,0,0-.28.56,2.31,2.31,0,0,1-.78,1.09,2.12,2.12,0,0,1-1.27.37,2.22,2.22,0,0,1-1.21-.33,2,2,0,0,1-.79-1,4.24,4.24,0,0,1-.29-1.67,3.69,3.69,0,0,1,.64-2.31,2.06,2.06,0,0,1,1.71-.82,2,2,0,0,1,1.13.32,2.6,2.6,0,0,1,.8,1,2.33,2.33,0,0,0,.37.54.68.68,0,0,0,.5.16.68.68,0,0,0,.51-.23.77.77,0,0,0,.22-.53,2,2,0,0,0-.44-1.15,3.33,3.33,0,0,0-1.25-1,4,4,0,0,0-1.85-.42,4.21,4.21,0,0,0-1.62.31,3.78,3.78,0,0,0-1.31.88,3.9,3.9,0,0,0-.87,1.41,5.34,5.34,0,0,0-.3,1.86,5.81,5.81,0,0,0,.12,1.2A4.65,4.65,0,0,0,22.51,43.91Z"/><path d="M35.58,44.43a2,2,0,0,1-1.26.36,2,2,0,0,1-.9-.18,1.37,1.37,0,0,1-.54-.46,3.3,3.3,0,0,1-.36-.68A1.29,1.29,0,0,0,32.2,43a.66.66,0,0,0-.47-.18.77.77,0,0,0-.78.77,2.13,2.13,0,0,0,.37,1.12,2.7,2.7,0,0,0,1,.92,4.13,4.13,0,0,0,2.1.48,4.27,4.27,0,0,0,1.83-.35,2.66,2.66,0,0,0,1.18-1,2.49,2.49,0,0,0,.4-1.4,2.45,2.45,0,0,0-.23-1.1,2.1,2.1,0,0,0-.65-.74,4.24,4.24,0,0,0-1-.5c-.39-.13-.83-.26-1.31-.37s-.67-.17-.84-.23a2.58,2.58,0,0,1-.49-.21,1.05,1.05,0,0,1-.39-.32.72.72,0,0,1-.14-.44.88.88,0,0,1,.41-.72,1.9,1.9,0,0,1,1.09-.29,1.63,1.63,0,0,1,1.05.27,2.3,2.3,0,0,1,.57.76,2,2,0,0,0,.33.49.65.65,0,0,0,.46.15.7.7,0,0,0,.55-.25.86.86,0,0,0,.22-.56,1.55,1.55,0,0,0-.18-.7,2.16,2.16,0,0,0-.56-.68,2.74,2.74,0,0,0-1-.52,4.24,4.24,0,0,0-1.36-.2,4.57,4.57,0,0,0-1.73.3,2.56,2.56,0,0,0-1.12.84,2.2,2.2,0,0,0-.38,1.26,2.08,2.08,0,0,0,.36,1.25,2.59,2.59,0,0,0,1,.79,9.08,9.08,0,0,0,1.55.51,8.77,8.77,0,0,1,1.11.3,1.71,1.71,0,0,1,.67.4.94.94,0,0,1,.26.7A1.09,1.09,0,0,1,35.58,44.43Z"/><path d="M43.58,44.43a2,2,0,0,1-1.25.36,2,2,0,0,1-.91-.18,1.44,1.44,0,0,1-.54-.46,3.88,3.88,0,0,1-.35-.68A1.3,1.3,0,0,0,40.2,43a.63.63,0,0,0-.46-.18.77.77,0,0,0-.78.77,2.11,2.11,0,0,0,.36,1.12,2.81,2.81,0,0,0,1,.92,4.12,4.12,0,0,0,2.09.48,4.35,4.35,0,0,0,1.84-.35,2.63,2.63,0,0,0,1.17-1,2.49,2.49,0,0,0,.4-1.4,2.32,2.32,0,0,0-.23-1.1,2.07,2.07,0,0,0-.64-.74,4.44,4.44,0,0,0-1-.5c-.4-.13-.83-.26-1.32-.37s-.66-.17-.83-.23a2.41,2.41,0,0,1-.5-.21,1.24,1.24,0,0,1-.39-.32.72.72,0,0,1-.14-.44.87.87,0,0,1,.42-.72,1.84,1.84,0,0,1,1.08-.29,1.66,1.66,0,0,1,1.06.27,2.28,2.28,0,0,1,.56.76,1.78,1.78,0,0,0,.34.49.61.61,0,0,0,.45.15.7.7,0,0,0,.55-.25.81.81,0,0,0,.22-.56,1.55,1.55,0,0,0-.18-.7,2.11,2.11,0,0,0-.55-.68,2.94,2.94,0,0,0-1-.52,4.3,4.3,0,0,0-1.37-.2,4.52,4.52,0,0,0-1.72.3,2.5,2.5,0,0,0-1.12.84,2.14,2.14,0,0,0-.39,1.26,2,2,0,0,0,.37,1.25,2.45,2.45,0,0,0,1,.79,8.52,8.52,0,0,0,1.55.51,8.55,8.55,0,0,1,1.1.3,1.75,1.75,0,0,1,.68.4,1,1,0,0,1,.26.7A1.07,1.07,0,0,1,43.58,44.43Z"/><path d="M56,34H53V16s0,0,0-.06a1.55,1.55,0,0,0,0-.21s0-.05,0-.08a.08.08,0,0,0,0,0,1,1,0,0,0-.17-.29l-11-12a1.42,1.42,0,0,0-.29-.21s0,0,0,0l-.07,0a.86.86,0,0,0-.23,0L41,3H14.42A3.42,3.42,0,0,0,11,6.42V34H8a1,1,0,0,0-1,1V49s0,0,0,.07,0,.13,0,.2l.06.17a.91.91,0,0,0,.11.16l.13.15.05,0L11,52.5v5.08A3.42,3.42,0,0,0,14.42,61H49.58A3.42,3.42,0,0,0,53,57.58V52.5l3.6-2.7,0,0,.13-.15a.91.91,0,0,0,.11-.16l.06-.17c0-.07,0-.13,0-.2s0,0,0-.07V35A1,1,0,0,0,56,34ZM42,6.57,49.73,15H42ZM21,5H40V16a1,1,0,0,0,1,1H51V34H21ZM13,6.42A1.43,1.43,0,0,1,14.42,5H19V34H13ZM11,50Zm8,9H14.42A1.43,1.43,0,0,1,13,57.58V50h6Zm32-1.42A1.43,1.43,0,0,1,49.58,59H21V50H51ZM53,50Zm2-2H9V36H55Z"/></g></svg>