<?xml version="1.0" encoding="UTF-8" standalone="no"?> <svg xmlns="http://www.w3.org/2000/svg" fill="#23b5b5" viewBox="0 0 64 64"><g id="Layer_52" data-name="Layer 52"><path d="M15.08,46.06a.84.84,0,0,0,.87-.89.83.83,0,0,0-.26-.61.86.86,0,0,0-.63-.26.87.87,0,0,0-.87.87.85.85,0,0,0,.26.66A.91.91,0,0,0,15.08,46.06Z"/><path d="M18.76,46.06a.79.79,0,0,0,.63-.26,1.14,1.14,0,0,0,.25-.8V42.12h3.75V45a1.16,1.16,0,0,0,.24.8.76.76,0,0,0,.62.26.83.83,0,0,0,.64-.26,1.14,1.14,0,0,0,.24-.8V38.24a1.16,1.16,0,0,0-.24-.8.84.84,0,0,0-.64-.26.8.8,0,0,0-.62.27,1.11,1.11,0,0,0-.24.79V40.7H19.64V38.24a1.11,1.11,0,0,0-.25-.8.83.83,0,0,0-.63-.26.77.77,0,0,0-.63.27,1.11,1.11,0,0,0-.23.79V45a1.16,1.16,0,0,0,.23.8A.79.79,0,0,0,18.76,46.06Z"/><path d="M27.05,38.76H29V45a1.14,1.14,0,0,0,.24.8.88.88,0,0,0,1.25,0,1.14,1.14,0,0,0,.24-.8V38.76h1.9a1,1,0,0,0,.67-.19.66.66,0,0,0,.22-.52.65.65,0,0,0-.22-.52.94.94,0,0,0-.67-.2H27.05a1,1,0,0,0-.65.19.67.67,0,0,0-.23.53.66.66,0,0,0,.22.52A1,1,0,0,0,27.05,38.76Z"/><path d="M35.22,46.06a.78.78,0,0,0,.59-.24,1.13,1.13,0,0,0,.22-.74V39.15l1.37,5.47c.05.18.1.36.14.52a2.1,2.1,0,0,0,.18.46.94.94,0,0,0,.85.46.88.88,0,0,0,.63-.2,1.08,1.08,0,0,0,.31-.45c.06-.17.13-.43.22-.79l1.38-5.47v5.93a1.13,1.13,0,0,0,.22.74.75.75,0,0,0,.57.24.76.76,0,0,0,.59-.24,1.07,1.07,0,0,0,.22-.74v-6.8a.85.85,0,0,0-.29-.75,1.34,1.34,0,0,0-.79-.2h-.54a2,2,0,0,0-.71.09.57.57,0,0,0-.32.31,4.77,4.77,0,0,0-.24.75l-1.25,4.7-1.25-4.7a4.77,4.77,0,0,0-.24-.75.56.56,0,0,0-.33-.31,2,2,0,0,0-.7-.09h-.54a1.32,1.32,0,0,0-.79.2.83.83,0,0,0-.29.75v6.8a1.06,1.06,0,0,0,.22.74A.75.75,0,0,0,35.22,46.06Z"/><path d="M45.53,45.92h4.2a1,1,0,0,0,.65-.2.64.64,0,0,0,.22-.51.67.67,0,0,0-.22-.52,1,1,0,0,0-.65-.2H46.2V38.24a1.16,1.16,0,0,0-.24-.8.84.84,0,0,0-.64-.26.8.8,0,0,0-.62.27,1.11,1.11,0,0,0-.24.79v6.61a.91.91,0,0,0,1.07,1.07Z"/><path d="M56,34H53V16s0,0,0-.06a1.55,1.55,0,0,0,0-.21s0-.05,0-.08a.08.08,0,0,0,0,0,1,1,0,0,0-.17-.29l-11-12a1.42,1.42,0,0,0-.29-.21s0,0,0,0l-.07,0a.86.86,0,0,0-.23,0L41,3H14.42A3.42,3.42,0,0,0,11,6.42V34H8a1,1,0,0,0-1,1V49s0,0,0,.07,0,.13,0,.2l.06.17a.91.91,0,0,0,.11.16l.13.15.05,0L11,52.5v5.08A3.42,3.42,0,0,0,14.42,61H49.58A3.42,3.42,0,0,0,53,57.58V52.5l3.6-2.7,0,0,.13-.15a.91.91,0,0,0,.11-.16l.06-.17c0-.07,0-.13,0-.2s0,0,0-.07V35A1,1,0,0,0,56,34ZM42,6.57,49.73,15H42ZM21,5H40V16a1,1,0,0,0,1,1H51V34H21ZM13,6.42A1.43,1.43,0,0,1,14.42,5H19V34H13ZM11,50Zm8,9H14.42A1.43,1.43,0,0,1,13,57.58V50h6Zm32-1.42A1.43,1.43,0,0,1,49.58,59H21V50H51ZM53,50Zm2-2H9V36H55Z"/></g></svg>