<?xml version="1.0" encoding="UTF-8" standalone="no"?> <svg xmlns="http://www.w3.org/2000/svg" fill="#23b5b5" viewBox="0 0 64 64"><g id="Layer_23" data-name="Layer 23"><path d="M24.57,46.06a.84.84,0,0,0,.87-.89.83.83,0,0,0-.26-.61.86.86,0,0,0-.63-.26.87.87,0,0,0-.87.87.82.82,0,0,0,.26.66A.91.91,0,0,0,24.57,46.06Z"/><path d="M27.09,44.9a2.12,2.12,0,0,0,.94.89,3.44,3.44,0,0,0,1.45.27,3.21,3.21,0,0,0,1.64-.39,2.19,2.19,0,0,0,1-1.11,3.22,3.22,0,0,0,.23-.83,9,9,0,0,0,0-1v-4.5a1.13,1.13,0,0,0-.24-.79.81.81,0,0,0-.64-.27.77.77,0,0,0-.63.27,1.13,1.13,0,0,0-.23.79V43c0,1.13-.39,1.69-1.16,1.69a1,1,0,0,1-.67-.19,1.15,1.15,0,0,1-.33-.46,5.72,5.72,0,0,1-.2-.72,1.37,1.37,0,0,0-.27-.63.67.67,0,0,0-.52-.2.86.86,0,0,0-.59.22.85.85,0,0,0-.22.63,2.92,2.92,0,0,0,.11.81A3.1,3.1,0,0,0,27.09,44.9Z"/><path d="M38.58,44.43a2,2,0,0,1-1.26.36,2,2,0,0,1-.9-.18,1.37,1.37,0,0,1-.54-.46,3.3,3.3,0,0,1-.36-.68A1.29,1.29,0,0,0,35.2,43a.66.66,0,0,0-.47-.18.77.77,0,0,0-.78.77,2.13,2.13,0,0,0,.37,1.12,2.7,2.7,0,0,0,1,.92,4.13,4.13,0,0,0,2.1.48,4.27,4.27,0,0,0,1.83-.35,2.66,2.66,0,0,0,1.18-1,2.49,2.49,0,0,0,.4-1.4,2.45,2.45,0,0,0-.23-1.1,2.1,2.1,0,0,0-.65-.74,4.24,4.24,0,0,0-1-.5c-.39-.13-.83-.26-1.31-.37s-.67-.17-.84-.23a2.58,2.58,0,0,1-.49-.21,1.05,1.05,0,0,1-.39-.32.72.72,0,0,1-.14-.44.88.88,0,0,1,.41-.72,1.9,1.9,0,0,1,1.09-.29,1.63,1.63,0,0,1,1.05.27,2.3,2.3,0,0,1,.57.76,2,2,0,0,0,.33.49.65.65,0,0,0,.46.15.7.7,0,0,0,.55-.25.86.86,0,0,0,.22-.56,1.55,1.55,0,0,0-.18-.7,2.16,2.16,0,0,0-.56-.68,2.74,2.74,0,0,0-1-.52,4.24,4.24,0,0,0-1.36-.2,4.57,4.57,0,0,0-1.73.3,2.56,2.56,0,0,0-1.12.84,2.2,2.2,0,0,0-.38,1.26,2.08,2.08,0,0,0,.36,1.25,2.59,2.59,0,0,0,1,.79,9.08,9.08,0,0,0,1.55.51,8.77,8.77,0,0,1,1.11.3,1.71,1.71,0,0,1,.67.4.94.94,0,0,1,.26.7A1.09,1.09,0,0,1,38.58,44.43Z"/><path d="M56,34H53V16s0,0,0-.06a1.55,1.55,0,0,0,0-.21s0-.05,0-.08a.08.08,0,0,0,0,0,1,1,0,0,0-.17-.29l-11-12a1.42,1.42,0,0,0-.29-.21s0,0,0,0l-.07,0a.86.86,0,0,0-.23,0L41,3H14.42A3.42,3.42,0,0,0,11,6.42V34H8a1,1,0,0,0-1,1V49s0,0,0,.07,0,.13,0,.2l.06.17a.91.91,0,0,0,.11.16l.13.15.05,0L11,52.5v5.08A3.42,3.42,0,0,0,14.42,61H49.58A3.42,3.42,0,0,0,53,57.58V52.5l3.6-2.7,0,0,.13-.15a.91.91,0,0,0,.11-.16l.06-.17c0-.07,0-.13,0-.2s0,0,0-.07V35A1,1,0,0,0,56,34ZM42,6.57,49.73,15H42ZM21,5H40V16a1,1,0,0,0,1,1H51V34H21ZM13,6.42A1.43,1.43,0,0,1,14.42,5H19V34H13ZM11,50Zm8,9H14.42A1.43,1.43,0,0,1,13,57.58V50h6Zm32-1.42A1.43,1.43,0,0,1,49.58,59H21V50H51ZM53,50Zm2-2H9V36H55Z"/></g></svg>